<?xml version="1.0" encoding="utf-8"?>
<!-- Generator: Adobe Illustrator 22.1.0, SVG Export Plug-In . SVG Version: 6.00 Build 0)  -->
<svg version="1.1" id="Layer_1" xmlns="http://www.w3.org/2000/svg" xmlns:xlink="http://www.w3.org/1999/xlink" x="0px" y="0px"
	 viewBox="0 0 179.7 91.4" style="enable-background:new 0 0 179.7 91.4;" xml:space="preserve">
<g id="XMLID_327_">
	<g id="XMLID_274_">
		<path id="XMLID_301_" d="M2.2,13.6h8.7l5.3,20.2L22,13.6h6.8l5.3,20.2l5.7-20.2h8l-9.5,30h-8.2L25,24.8l-5.5,18.8h-8.3L2.2,13.6z"
			/>
		<path id="XMLID_299_" d="M51.4,0h8.3v18.4c1.5-3,4.8-5.5,9.8-5.5c5.9,0,10.1,3.6,10.1,11.6v19.1h-8.3V25.7c0-4.1-1.6-6-5.3-6
			c-3.6,0-6.3,2.2-6.3,6.6v17.3h-8.3C51.4,43.6,51.4,0,51.4,0z"/>
		<path id="XMLID_296_" d="M84.6,5c0-2.6,2.1-4.5,4.7-4.5C92,0.5,94,2.4,94,5s-2,4.5-4.7,4.5C86.6,9.5,84.6,7.6,84.6,5z M85.2,13.6
			h8.3v30h-8.3V13.6z"/>
		<path id="XMLID_294_" d="M100.7,34.7V19.5h-3.8v-5.9h3.8V7.1h8.3v6.5h6.3v5.9H109V34c0,2.4,1.2,3.6,3.3,3.6c1.3,0,2.2-0.2,3.2-0.6
			v6.4c-1.1,0.4-2.8,0.8-5.1,0.8C104.1,44.2,100.7,41,100.7,34.7z"/>
		<path id="XMLID_291_" d="M118,29v-0.5c0-9.5,6.7-15.6,15.4-15.6c7.8,0,14.6,4.5,14.6,15.3v2.3h-21.6c0.2,5,2.9,7.9,7.5,7.9
			c3.8,0,5.7-1.7,6.3-4.2h7.9c-1,6.5-6.1,10.1-14.4,10.1C124.6,44.3,118,38.6,118,29z M140,25.4c-0.3-4.5-2.6-6.7-6.5-6.7
			c-3.7,0-6.3,2.5-6.9,6.7C126.6,25.4,140,25.4,140,25.4z"/>
		<path id="XMLID_289_" d="M0,71.7h7.8C8.1,74.4,9.4,76,13,76c3.2,0,4.7-1.2,4.7-3.3c0-2.1-1.8-2.9-6.1-3.6
			c-8-1.2-11.1-3.5-11.1-9.4c0-6.3,5.7-9.4,11.9-9.4c6.7,0,11.7,2.4,12.4,9.3h-7.6c-0.5-2.5-1.8-3.6-4.7-3.6c-2.7,0-4.2,1.3-4.2,3.1
			c0,1.9,1.4,2.6,5.8,3.3c7.5,1.1,11.7,3,11.7,9.4c0,6.5-4.7,9.9-12.6,9.9C5,81.8,0.3,78.2,0,71.7z"/>
		<path id="XMLID_286_" d="M51.5,76.3c-1.6,2.9-5.2,5.5-9.6,5.5c-7.3,0-13-5.2-13-15.2v-0.5c0-9.9,5.7-15.7,13.2-15.7
			c4.8,0,7.8,2.1,9.5,5.2v-4.5h8.3v40.3h-8.3V76.3H51.5z M51.7,66.3v-0.5c0-6-2.6-9-7.2-9c-4.7,0-7.2,3.2-7.2,9.1v0.5
			c0,6,2.9,8.9,7,8.9C48.7,75.3,51.7,72.4,51.7,66.3z"/>
		<path id="XMLID_284_" d="M65.4,70.5V51.1h8.3v18.2c0,4.1,1.7,6,5.2,6s6.3-2.2,6.3-6.6V51.1h8.3v30h-8.3v-4.7
			c-1.6,3-4.6,5.3-9.5,5.3C69.8,81.8,65.4,78.3,65.4,70.5z"/>
		<path id="XMLID_280_" d="M97.6,72.8c0-7,6.4-9.6,15.6-9.6h3.4V62c0-3.6-1.1-5.5-4.9-5.5c-3.3,0-4.8,1.7-5.1,4.2h-7.9
			c0.5-7.1,6.1-10.3,13.5-10.3s12.6,3,12.6,11.1v19.6h-8.1v-3.6c-1.7,2.4-4.4,4.2-9.1,4.2C102.2,81.8,97.6,79.2,97.6,72.8z
			 M116.6,70.7v-2.5h-3.2c-4.8,0-7.6,1-7.6,4.2c0,2.2,1.3,3.6,4.4,3.6C113.8,76,116.6,74,116.6,70.7z"/>
		<path id="XMLID_278_" d="M130.5,51.1h8.3v5.7c1.9-4,4.8-6.1,9.7-6.2v7.8c-6.1-0.1-9.7,2-9.7,7.7v15h-8.3V51.1z"/>
		<path id="XMLID_275_" d="M149.6,66.5V66c0-9.5,6.7-15.6,15.4-15.6c7.8,0,14.6,4.5,14.6,15.3V68H158c0.2,5,2.9,7.9,7.5,7.9
			c3.8,0,5.7-1.7,6.3-4.2h7.9c-1,6.5-6.1,10.1-14.4,10.1C156.2,81.8,149.6,76.1,149.6,66.5z M171.6,62.9c-0.3-4.5-2.6-6.7-6.5-6.7
			c-3.7,0-6.3,2.5-6.9,6.7H171.6z"/>
	</g>
</g>
</svg>
